<svg width="345" height="161" viewBox="0 0 345 161" fill="none" xmlns="http://www.w3.org/2000/svg" style="width: 100%; height: 100%;">
<g clip-path="url(#clip0_35_3559)">
<path d="M255.484 158.866H65.129L61.724 136.912L50.946 36.3461H241.31L255.484 158.866Z" fill="white" stroke="#010101" stroke-width="1.5" stroke-linecap="round" stroke-linejoin="round"></path>
<path d="M240.029 26.374L241.31 36.346H50.946L49.665 26.119L240.029 26.374Z" fill="#409EFF" stroke="#010101" stroke-width="1.5" stroke-linecap="round" stroke-linejoin="round"></path>
<path d="M161.935 122.636C161.935 122.636 153.694 79.281 150.022 60.087C122.555 59.804 71.264 60.549 71.264 60.549L79.226 122.359L161.935 122.636Z" fill="#409EFF" stroke="#010101" stroke-width="1.5" stroke-linecap="round" stroke-linejoin="round"></path>
<path d="M167.718 74.379C184.282 74.311 200.844 73.808 217.382 72.871L167.718 74.379Z" fill="white"></path>
<path d="M167.718 74.379C184.282 74.311 200.844 73.808 217.382 72.871" stroke="#010101" stroke-width="1.5" stroke-linecap="round" stroke-linejoin="round"></path>
<path d="M170.037 90.58C178.088 90.589 186.14 90.502 194.189 90.319L170.037 90.58Z" fill="white"></path>
<path d="M170.037 90.58C178.088 90.589 186.14 90.502 194.189 90.319" stroke="#010101" stroke-width="1.5" stroke-linecap="round" stroke-linejoin="round"></path>
<path d="M199.687 100.994C197.055 101.131 194.262 101.492 192.232 103.174C190.202 104.856 189.435 108.289 191.333 110.118C192.522 111.264 194.313 111.452 195.961 111.563C202.296 111.989 208.671 112.184 214.985 111.514C216.93 111.308 219.049 110.922 220.308 109.425C221.4 108.126 221.131 106.299 220.645 104.673C219.309 100.21 205.773 100.678 199.688 100.994H199.687Z" fill="white" stroke="#010101" stroke-width="1.5" stroke-linecap="round" stroke-linejoin="round"></path>
<path d="M71.264 158.866C62.3 145.145 51.356 131.585 35.8281 126.338C30.2051 124.438 23.8091 123.672 18.4781 126.282C17.2381 126.889 16.0411 127.712 15.3701 128.918C14.5371 130.415 14.6431 132.248 14.9221 133.939C16.1171 141.196 30.0501 156.553 31.9751 159.071C48.1911 159.071 51.236 158.866 71.264 158.866Z" fill="#55D087" stroke="#010101" stroke-width="1.5" stroke-linecap="round" stroke-linejoin="round"></path>
<path d="M34.831 158.886C31.587 153.299 26.563 148.764 20.675 146.106C16.429 144.19 11.594 143.244 7.07102 144.358C4.68902 144.945 2.29102 146.255 1.30002 148.499C0.754024 149.736 0.690024 151.134 0.791024 152.482C0.960024 154.739 1.59802 157.019 2.98702 159.232C13.584 159.27 24.18 159.308 34.831 158.886Z" fill="#55D087" stroke="#010101" stroke-width="1.5" stroke-linecap="round" stroke-linejoin="round"></path>
<path d="M23.7531 127.783C34.3681 138.398 43.6531 148.186 52.5891 158.194L23.7531 127.783Z" fill="white"></path>
<path d="M23.7531 127.783C34.3681 138.398 43.6531 148.186 52.5891 158.194" stroke="#010101" stroke-width="1.5" stroke-linecap="round" stroke-linejoin="round"></path>
<path d="M9.23602 144.041C12.087 149.173 15.292 154.108 18.82 158.8L9.23602 144.041Z" fill="white"></path>
<path d="M9.23602 144.041C12.087 149.173 15.292 154.108 18.82 158.8" stroke="#010101" stroke-width="1.5" stroke-linecap="round" stroke-linejoin="round"></path>
<path d="M195.704 108.584C196.937 107.215 198.208 105.881 199.517 104.584C199.729 104.374 200.013 104.147 200.294 104.247C200.474 104.311 200.582 104.489 200.675 104.655C201.131 105.47 201.56 106.301 201.96 107.146C202.131 107.507 202.318 107.895 202.668 108.089C203.165 108.366 203.805 108.139 204.241 107.774C204.677 107.409 204.998 106.92 205.436 106.557C205.599 106.422 205.8 106.3 206.009 106.333C206.316 106.382 206.467 106.72 206.67 106.955C207.04 107.384 207.651 107.501 208.215 107.55C209.712 107.68 211.235 107.514 212.669 107.065" fill="white"></path>
<path d="M195.704 108.584C196.937 107.215 198.208 105.881 199.517 104.584C199.729 104.374 200.013 104.147 200.294 104.247C200.474 104.311 200.582 104.489 200.675 104.655C201.131 105.47 201.56 106.301 201.96 107.146C202.131 107.507 202.318 107.895 202.668 108.089C203.165 108.366 203.805 108.139 204.241 107.774C204.677 107.409 204.998 106.92 205.436 106.557C205.599 106.422 205.8 106.3 206.009 106.333C206.316 106.382 206.467 106.72 206.67 106.955C207.04 107.384 207.651 107.501 208.215 107.55C209.712 107.68 211.235 107.514 212.669 107.065" stroke="#010101" stroke-width="1.5" stroke-linecap="round" stroke-linejoin="round"></path>
<path d="M279.825 70.799C271.316 53.526 264.821 35.262 260.513 16.494C259.543 12.267 258.752 7.54803 260.971 3.82103C261.717 2.56903 262.821 1.47903 264.202 1.01303C266.335 0.292026 268.68 1.16103 270.608 2.32403C274.462 4.65003 278.871 13.471 280.398 17.707C287.361 37.02 291.188 41.868 296.106 53.736C293.964 61.399 294.47 60.394 292.329 68.056C292.093 68.899 291.835 69.782 291.214 70.399C290.392 71.215 289.143 71.373 287.99 71.487C284.649 71.818 280.711 72.598 279.825 70.798V70.799Z" fill="#55D087" stroke="#010101" stroke-width="1.5" stroke-linecap="round" stroke-linejoin="round"></path>
<path d="M295.574 69.081C304.351 60.878 310.813 50.516 316.44 39.902C319.511 34.109 322.374 28.182 324.473 21.97C325.351 19.373 326.101 16.625 325.673 13.918C325.245 11.211 323.34 8.55997 320.641 8.08397C318.809 7.76097 316.948 8.46197 315.328 9.37497C310.625 12.025 307.177 16.449 304.408 21.083C295.807 35.473 292.743 52.407 286.763 68.584C288.203 69.407 289.672 70.242 291.291 70.6C292.91 70.958 294.192 70.372 295.574 69.081Z" fill="#55D087" stroke="#010101" stroke-width="1.5" stroke-linecap="round" stroke-linejoin="round"></path>
<path d="M290.69 70.3701C298.921 52.3871 308.027 34.8051 317.964 17.7061" stroke="#010101" stroke-width="1.5" stroke-linecap="round" stroke-linejoin="round"></path>
<path d="M264.251 1.80701C267.535 13.333 272.407 24.334 276.516 35.592C280.83 47.41 284.323 59.565 289.725 70.927" stroke="#010101" stroke-width="1.5" stroke-linecap="round" stroke-linejoin="round"></path>
<path d="M333.521 106.528C325.929 97.468 315.075 90.104 303.646 86.27C303.646 81.241 303.073 74.02 303.509 67.385C293.231 67.536 282.953 67.688 272.675 67.839C272.892 74.212 273.108 80.584 272.774 86.08C265.738 89.384 258.736 92.881 252.509 97.533C246.282 102.185 240.818 108.084 237.679 115.194C235.164 120.89 234.215 127.209 234.459 133.43C234.646 138.192 235.544 142.999 237.758 147.219C239.971 151.439 243.6 155.037 248.109 156.578C250.958 157.552 254.016 157.682 257.025 157.793C278.562 158.584 300.169 158.823 321.627 156.81C326.714 156.333 332.044 155.633 336.167 152.617C340.358 149.55 342.683 144.467 343.596 139.354C345.674 127.718 341.114 115.587 333.522 106.527L333.521 106.528ZM318.301 132.321C318.148 134.7 314.405 134.842 311.718 135.16C307.058 135.712 302.369 135.975 297.684 136.239C285.366 136.932 272.97 137.622 260.722 136.131C259.196 135.945 257.324 135.405 257.073 133.888C256.657 129.34 259.903 124.896 262.754 121.043C266.582 115.868 271.448 111.297 277.37 108.774C284.211 105.86 292.194 105.906 299.125 108.599C306.056 111.292 311.902 116.543 315.611 122.988C317.25 125.836 318.512 129.043 318.301 132.322V132.321Z" fill="#E3E3FF" stroke="#010101" stroke-width="1.5" stroke-linecap="round" stroke-linejoin="round"></path>
<path d="M105.546 105.754C112.156 95.844 119.84 83.64 125.554 73.208C125.785 72.786 126.366 72.755 126.649 73.144C134.953 84.542 144.017 95.387 153.762 105.58C154.161 105.998 153.861 106.684 153.283 106.685C130.421 106.721 120.135 107.552 106.071 106.77C105.563 106.742 105.263 106.177 105.546 105.754Z" fill="white" stroke="#010101" stroke-width="1.5" stroke-linecap="round" stroke-linejoin="round"></path>
<path d="M118.215 105.996C111.069 98.619 101.802 88.608 99.436 86.046C99.144 85.73 98.641 85.777 98.407 86.138C95.961 89.917 84.599 107.521 85.197 107.521C93.777 107.521 105.639 107.139 117.74 107.107C118.321 107.105 118.619 106.414 118.215 105.996Z" fill="#010101" stroke="#010101" stroke-width="1.5" stroke-linecap="round" stroke-linejoin="round"></path>
<path d="M106.044 73.36C105.623 74.519 105.918 75.892 106.703 76.842C107.133 77.362 107.702 77.756 108.314 78.04C109.945 78.797 112.035 78.716 113.386 77.529C114.16 76.849 114.64 75.846 114.685 74.817C114.73 73.788 114.339 72.747 113.627 72.002C113.018 71.364 112.206 70.955 111.373 70.665C110.709 70.433 107.203 70.17 106.044 73.36Z" fill="white" stroke="#010101" stroke-width="1.5" stroke-linecap="round" stroke-linejoin="round"></path>
<path d="M155.05 122.095L146.652 125.491C147.813 128.572 149.224 131.481 150.472 134.457C148.715 135.218 146.959 135.98 145.202 136.741C143.913 133.371 141.784 128.069 141.784 128.069L132.595 131.365L131.13 99.618C131.13 99.618 146.836 114.467 155.05 122.095Z" fill="white" stroke="#010101" stroke-width="1.5" stroke-linecap="round" stroke-linejoin="round"></path>
</g>
<defs>
<clipPath id="clip0_35_3559">
<rect width="344.847" height="160.004" fill="white"></rect>
</clipPath>
</defs>
</svg>