<svg width="282" height="205" viewBox="0 0 282 205" fill="none" xmlns="http://www.w3.org/2000/svg" style="width: 100%; height: 100%;">
<g clip-path="url(#clip0_35_3338)">
<path d="M190.377 162.703C197.33 149.847 196.715 149.27 203.668 136.415C208.536 127.415 213.943 117.889 223.866 112.898C229.219 110.205 236.613 109.285 241.37 112.83C252.469 121.103 245.014 142.84 234.489 165.375C217.768 165.536 205.343 163.749 190.377 162.703Z" fill="#55D087" stroke="#010101" stroke-width="1.5" stroke-linecap="round" stroke-linejoin="round"></path>
<path d="M233.946 117.022C228.236 136.694 223.431 145.294 215.094 164.22" stroke="#010101" stroke-width="1.5" stroke-linecap="round" stroke-linejoin="round"></path>
<path d="M230.38 165.306C242.358 146.067 248.369 132.897 265.148 127.832C268.437 126.839 272.234 126.441 275.348 127.864C278.87 129.474 281.642 133.033 281.165 136.432C279.337 149.469 271.998 156.512 267.527 165.849C252.452 165.576 241.781 165.512 230.38 165.306Z" fill="#55D087" stroke="#010101" stroke-width="1.5" stroke-linecap="round" stroke-linejoin="round"></path>
<path d="M271.307 129.928C263.038 145.25 261.087 150.234 250.394 164.368" stroke="#010101" stroke-width="1.5" stroke-linecap="round" stroke-linejoin="round"></path>
<path d="M105.527 60.4821C104.64 54.451 103.866 47.8351 107.092 42.6641C108.594 40.2561 110.842 38.4051 113.199 36.8231C124.337 29.3501 165.564 24.1331 181.547 22.2751C189.946 21.2981 197.249 25.4001 200.727 36.0451C207.58 57.021 218.511 132.25 222.727 178.401C223.03 181.723 223.28 185.277 221.658 188.191C220.119 190.957 217.168 192.619 214.238 193.816C209.563 195.726 204.596 196.805 199.641 197.78C179.59 201.725 168.927 202.813 148.507 203.592C144.745 203.735 140.781 203.78 137.469 201.989C132.24 199.162 130.267 192.78 128.803 187.019C119.88 151.897 105.148 59.6991 105.527 60.4821Z" fill="#010101" stroke="#010101" stroke-width="1.5" stroke-linecap="round" stroke-linejoin="round"></path>
<path d="M112.34 65.3811C111.55 60.0081 110.422 52.9251 113.297 48.3161C114.635 46.1701 116.639 44.5211 118.739 43.1121C128.663 36.4531 164.341 31.9451 178.582 30.2891C183.093 29.7651 189.223 28.8751 194.27 40.4101C201.478 56.8851 209.079 118.415 212.782 158.949C213.052 161.909 213.275 165.075 211.829 167.673C210.458 170.137 207.829 171.618 205.218 172.685C201.052 174.387 196.627 175.349 192.212 176.217C174.346 179.732 165.902 180.561 147.707 181.255C144.355 181.383 140.823 181.422 137.872 179.827C133.213 177.308 131.454 171.621 130.15 166.488C122.199 135.193 112.003 64.6831 112.341 65.3811H112.34Z" fill="white" stroke="#010101" stroke-width="1.5" stroke-linecap="round" stroke-linejoin="round"></path>
<path d="M179.457 184.398C177.84 183.457 173.702 183.721 172.142 185.984C170.559 188.281 171.065 191.685 173.072 193.622C173.682 194.211 174.427 194.687 175.259 194.849C177.821 195.349 181.323 194.496 182.14 191.514C182.714 189.422 182.831 186.362 179.457 184.398Z" fill="white" stroke="#010101" stroke-width="1.5" stroke-linecap="round" stroke-linejoin="round"></path>
<path d="M181.203 5.521C175.383 8.428 171.066 13.805 168.036 19.562C162.773 29.561 161.895 42.132 167.141 52.141C169.428 56.504 172.775 60.267 176.641 63.319C185.776 70.53 197.973 73.719 209.47 71.913C222.778 69.822 226.541 61.759 228.492 58.418C233.661 49.563 236.874 37.699 233.032 27.267C228.206 14.163 211.012 -9.366 181.203 5.521Z" fill="#FFFFFF" stroke="#010101" stroke-width="1.5" stroke-linecap="round" stroke-linejoin="round"></path>
<path d="M185.367 12.546C180.875 14.789 177.543 18.939 175.205 23.382C171.144 31.099 170.466 40.801 174.514 48.525C176.279 51.892 178.862 54.796 181.846 57.152C188.896 62.717 198.309 65.178 207.182 63.784C217.452 62.171 220.357 55.948 221.862 53.369C225.851 46.535 228.331 37.379 225.366 29.328C221.642 19.215 208.372 1.05702 185.367 12.546Z" fill="#FFFFFF" stroke="#010101" stroke-width="1.5" stroke-linecap="round" stroke-linejoin="round"></path>
<path d="M203.992 53.018C202.905 53.448 201.789 53.779 200.642 53.975C200.46 55.951 200.316 57.928 200.221 59.908C198.708 59.805 197.196 59.703 195.683 59.6C195.846 57.793 196.017 56.001 196.202 54.202C192.867 53.944 189.635 52.739 187.056 50.595C187.279 49.286 187.68 47.408 187.892 46.095C190.611 47.217 192.448 47.855 195.42 48.558C198.75 49.355 203.704 48.758 202.709 44.993C202.193 42.997 198.791 42.113 196.996 41.086C186.961 35.397 188.386 28.453 191.387 25.078C193.58 22.616 195.742 21.753 199.669 21.064C200.04 18.71 200.238 13.973 200.238 13.973L205.194 14.534C205.194 14.534 204.37 18.962 204.263 21.203C206.078 21.042 209.167 21.658 210.652 22.707C210.538 24.027 210.436 25.351 210.069 26.826C207.478 26.602 203.691 25.703 201.099 25.932C198.504 26.172 195.742 27.966 195.665 30.569C195.6 32.949 197.757 34.814 199.94 35.769C202.12 36.736 204.564 37.212 206.419 38.699C208.746 40.545 209.725 43.789 209.169 46.697C208.394 50.676 205.296 52.497 203.991 53.017L203.992 53.018Z" fill="white" stroke="#010101" stroke-width="1.5" stroke-linecap="round" stroke-linejoin="round"></path>
<path d="M173.076 154.928C140.962 166.334 108.192 175.891 74.981 183.533C72.175 184.179 69.297 182.688 68.223 180.016C60.311 160.342 53.904 140.479 48.525 120.367C47.726 117.381 49.402 114.28 52.331 113.293C85.99 101.946 119.79 91.7921 153.739 82.0351C156.999 81.0981 160.377 83.1111 161.102 86.4251C165.915 108.432 171.587 129.936 176.745 147.759C177.608 150.74 176 153.889 173.076 154.928Z" fill="#E3E3FF" stroke="#010101" stroke-width="1.5" stroke-linecap="round" stroke-linejoin="round"></path>
<path d="M62.335 65.4821C62.251 71.9881 62.166 78.4951 62.082 85.0011" stroke="#010101" stroke-width="1.5" stroke-linecap="round" stroke-linejoin="round"></path>
<path d="M20.214 80.9071C24.296 85.2061 28.378 89.5061 32.46 93.8051" stroke="#010101" stroke-width="1.5" stroke-linecap="round" stroke-linejoin="round"></path>
<path d="M0.75 120.683C6.37 120.961 11.99 121.238 17.61 121.516" stroke="#010101" stroke-width="1.5" stroke-linecap="round" stroke-linejoin="round"></path>
<path d="M64.056 119.343C62.92 119.826 61.587 120.605 61.655 121.838C61.722 123.068 63.186 123.719 64.417 123.729C65.906 123.741 67.346 123.24 68.745 122.729C73.684 120.924 79.246 119.669 84.018 117.459C85.209 116.907 86.605 115.955 86.346 114.668C86.097 113.433 84.519 113.048 83.26 113.096C81.089 113.179 69.377 117.081 64.056 119.343Z" fill="white" stroke="#010101" stroke-width="1.5" stroke-linecap="round" stroke-linejoin="round"></path>
<path d="M63.9 135.066C90.999 126.48 130.555 115.219 149.341 109.267C151.398 108.615 153.523 107.675 155.615 108.203C157.707 108.731 159.39 111.274 158.229 113.092C157.593 114.089 156.376 114.516 155.249 114.876C128.223 123.509 97.165 132.618 70.14 141.251C68.676 141.719 67.164 142.192 65.633 142.055C64.102 141.918 62.533 141.011 62.1 139.537C61.64 137.969 62.178 135.612 63.9 135.066Z" fill="#010101" stroke="#010101" stroke-width="1.5" stroke-linecap="round" stroke-linejoin="round"></path>
<path d="M142.651 132.574C139.185 132.969 135.979 135.187 134.387 138.291C133.456 140.107 133.066 142.158 132.936 144.195C132.82 146.021 132.911 147.893 133.54 149.612C134.577 152.44 137.032 154.614 139.836 155.714C142.64 156.814 145.788 157.081 148.735 156.462C159.529 154.196 157.283 140.566 153.429 136.049C150.608 132.743 145.973 132.195 142.65 132.573L142.651 132.574Z" fill="white" stroke="#010101" stroke-width="1.5" stroke-linecap="round" stroke-linejoin="round"></path>
<path d="M73.601 162.76C80.04 160.633 86.48 158.505 92.919 156.378" stroke="#010101" stroke-width="1.5" stroke-linecap="round" stroke-linejoin="round"></path>
<path d="M75.683 167.364C78.748 166.348 81.813 165.331 84.879 164.315" stroke="#010101" stroke-width="1.5" stroke-linecap="round" stroke-linejoin="round"></path>
<path d="M127.78 137.252C124.314 137.647 121.108 139.865 119.516 142.969C118.585 144.785 118.195 146.836 118.065 148.873C117.949 150.699 118.04 152.571 118.669 154.29C119.706 157.118 122.161 159.292 124.965 160.392C127.769 161.492 130.917 161.759 133.864 161.14C144.658 158.874 142.412 145.244 138.558 140.727C135.737 137.421 131.102 136.873 127.779 137.251L127.78 137.252Z" fill="#FFFFFF" stroke="#010101" stroke-width="1.5" stroke-linecap="round" stroke-linejoin="round"></path>
</g>
<defs>
<clipPath id="clip0_35_3338">
<rect width="281.969" height="204.404" fill="white"></rect>
</clipPath>
</defs>
</svg>